<?xml version="1.0" encoding="UTF-8" standalone="no"?>
<!-- Created with Inkscape (http://www.inkscape.org/) -->

<svg
   xmlns:dc="http://purl.org/dc/elements/1.1/"
   xmlns:cc="http://creativecommons.org/ns#"
   xmlns:rdf="http://www.w3.org/1999/02/22-rdf-syntax-ns#"
   xmlns:svg="http://www.w3.org/2000/svg"
   xmlns="http://www.w3.org/2000/svg"
   xmlns:sodipodi="http://sodipodi.sourceforge.net/DTD/sodipodi-0.dtd"
   xmlns:inkscape="http://www.inkscape.org/namespaces/inkscape"
   width="744.09448"
   height="1052.3622"
   id="svg2"
   version="1.1"
   inkscape:version="0.48.4 r9939"
   sodipodi:docname="Deckblatt.svg">
  <defs
     id="defs4" />
  <sodipodi:namedview
     id="base"
     pagecolor="#ffffff"
     bordercolor="#666666"
     borderopacity="1.0"
     inkscape:pageopacity="0.0"
     inkscape:pageshadow="2"
     inkscape:zoom="0.7"
     inkscape:cx="290.18828"
     inkscape:cy="562.83219"
     inkscape:document-units="mm"
     inkscape:current-layer="layer3"
     showgrid="false"
     inkscape:window-width="1680"
     inkscape:window-height="1000"
     inkscape:window-x="0"
     inkscape:window-y="0"
     inkscape:window-maximized="1"
     showguides="false"
     inkscape:guide-bbox="true"
     units="mm"
     inkscape:snap-grids="false"
     inkscape:snap-bbox="true"
     inkscape:snap-bbox-midpoints="true"
     inkscape:snap-global="true"
     inkscape:snap-to-guides="true">
    <sodipodi:guide
       orientation="0,1"
       position="-35.433071,350.7874"
       id="guide3069" />
    <sodipodi:guide
       orientation="0,1"
       position="-35.433071,701.5748"
       id="guide3071" />
    <inkscape:grid
       units="mm"
       empspacing="10"
       visible="true"
       enabled="true"
       snapvisiblegridlinesonly="true"
       type="xygrid"
       id="grid3073" />
    <sodipodi:guide
       orientation="0,1"
       position="-35.433071,526.1811"
       id="guide3079" />
    <sodipodi:guide
       orientation="0,1"
       position="-35.433071,175.3937"
       id="guide3081" />
    <sodipodi:guide
       orientation="0,1"
       position="-35.433071,876.9685"
       id="guide3083" />
    <sodipodi:guide
       orientation="0,1"
       position="-35.433071,789.27165"
       id="guide3085" />
    <sodipodi:guide
       orientation="0,1"
       position="-35.433071,613.87795"
       id="guide3087" />
    <sodipodi:guide
       orientation="0,1"
       position="-35.433071,87.69685"
       id="guide3089" />
  </sodipodi:namedview>
  <metadata
     id="metadata7">
    <rdf:RDF>
      <cc:Work
         rdf:about="">
        <dc:format>image/svg+xml</dc:format>
        <dc:type
           rdf:resource="http://purl.org/dc/dcmitype/StillImage" />
        <dc:title />
      </cc:Work>
    </rdf:RDF>
  </metadata>
  <g
     inkscape:groupmode="layer"
     id="layer3"
     inkscape:label="Deckblatt"
     transform="translate(0,-2.5390623e-6)"
     style="display:inline">
    <g
       id="g3055"
       transform="translate(93.781433,248.90889)">
      <text
         sodipodi:linespacing="125%"
         id="text3047"
         y="434.14883"
         x="279.31418"
         style="font-size:16px;font-style:normal;font-variant:normal;font-weight:normal;font-stretch:normal;text-align:center;line-height:125%;letter-spacing:2.13999987px;word-spacing:0px;text-anchor:middle;fill:#000000;fill-opacity:1;stroke:none;font-family:EB Garamond 12 All SC;-inkscape-font-specification:EB Garamond 12 All SC"
         xml:space="preserve"><tspan
           y="434.14883"
           x="280.38419"
           id="tspan3049"
           sodipodi:role="line">jan dismas</tspan></text>
      <text
         sodipodi:linespacing="125%"
         id="text3051"
         y="452.66589"
         x="277.94019"
         style="font-size:12px;font-style:normal;font-variant:normal;font-weight:normal;font-stretch:normal;text-align:center;line-height:125%;letter-spacing:5.19000053px;word-spacing:0px;text-anchor:middle;fill:#d40000;fill-opacity:1;stroke:none;font-family:EB Garamond;-inkscape-font-specification:EB Garamond"
         xml:space="preserve"><tspan
           style="font-size:20px;letter-spacing:5.19000053px;fill:#d40000"
           y="452.66589"
           x="280.53519"
           id="tspan3053"
           sodipodi:role="line">ZELENKA</tspan></text>
    </g>
    <text
       xml:space="preserve"
       style="font-size:12px;font-style:normal;font-variant:normal;font-weight:normal;font-stretch:normal;text-align:center;line-height:110.00000238%;letter-spacing:0px;word-spacing:0px;text-anchor:middle;fill:#000000;fill-opacity:1;stroke:none;font-family:EB Garamond;-inkscape-font-specification:EB Garamond"
       x="372.3208"
       y="412.09424"
       id="text3061"
       sodipodi:linespacing="110%"><tspan
         sodipodi:role="line"
         id="tspan3063"
         x="372.3208"
         y="412.09424"
         style="font-size:14px;font-style:normal;line-height:110.00000238%;-inkscape-font-specification:EB Garamond">Missa Ultimarum Secunda.</tspan><tspan
         sodipodi:role="line"
         x="373.77002"
         y="427.49423"
         id="tspan3065"
         style="font-size:14px;font-style:normal;line-height:110.00000238%;-inkscape-font-specification:EB Garamond">Dicta </tspan><tspan
         sodipodi:role="line"
         x="372.3208"
         y="442.89423"
         id="tspan3067"
         style="font-size:14px;font-style:normal;line-height:110.00000238%;-inkscape-font-specification:EB Garamond">Missa Dei Filii.</tspan><tspan
         sodipodi:role="line"
         x="372.3208"
         y="458.29425"
         style="font-size:14px;font-style:normal;line-height:110.00000238%;-inkscape-font-specification:EB Garamond"
         id="tspan3075" /><tspan
         sodipodi:role="line"
         x="372.3208"
         y="473.69424"
         style="font-size:14px;font-style:normal;line-height:110.00000238%;-inkscape-font-specification:EB Garamond"
         id="tspan3077">ZWV Z 20</tspan></text>
    <text
       xml:space="preserve"
       style="font-size:14px;font-style:normal;font-variant:normal;font-weight:normal;font-stretch:normal;text-align:center;line-height:125%;letter-spacing:1.84000015px;word-spacing:0px;text-anchor:middle;fill:#000000;fill-opacity:1;stroke:none;font-family:EB Garamond 12 All SC;-inkscape-font-specification:EB Garamond 12 All SC"
       x="372.06738"
       y="967.76636"
       id="text3099"
       sodipodi:linespacing="125%"><tspan
         sodipodi:role="line"
         x="372.9874"
         y="967.76636"
         id="tspan3023">full score</tspan></text>
    <text
       sodipodi:linespacing="110%"
       id="text3021"
       y="876.96851"
       x="371.86884"
       style="font-size:12px;font-style:normal;font-variant:normal;font-weight:normal;font-stretch:normal;text-align:center;line-height:110.00000238%;letter-spacing:0px;word-spacing:0px;text-anchor:middle;fill:#000000;fill-opacity:1;stroke:none;font-family:EB Garamond;-inkscape-font-specification:EB Garamond"
       xml:space="preserve"><tspan
         id="tspan3032"
         style="font-size:14px;font-style:normal;line-height:110.00000238%;-inkscape-font-specification:EB Garamond"
         y="876.96851"
         x="371.86884"
         sodipodi:role="line">2 Ob / 2 Vl / Va / SATB (soli) / SATB (coro) / BOrg</tspan></text>
    <g
       style="font-size:72px;font-style:normal;font-variant:normal;font-weight:normal;font-stretch:normal;text-align:center;line-height:125%;letter-spacing:0px;word-spacing:0px;text-anchor:middle;fill:none;stroke:#808080;stroke-width:0.625;stroke-miterlimit:4;stroke-dasharray:none;font-family:EB Garamond;-inkscape-font-specification:EB Garamond"
       id="text3026"
       transform="translate(0.59347121,56.792825)">
      <path
         d="m 179.71721,218.78971 -1.224,-23.76 c -0.216,-4.10399 0.576,-5.544 2.808,-6.48 2.87999,-1.224 3.456,-1.44 3.456,-2.16 0,-0.72 -0.288,-1.224 -1.152,-1.224 -2.304,0 -7.272,0.72 -9.144,0.72 -1.872,0 -2.88,0 -3.672,1.656 l -11.304,23.472 c -1.368,2.736 -1.656,1.584 -2.232,0.072 l -8.424,-20.664 c -1.368,-3.23999 -2.592,-4.536 -4.536,-4.536 -3.312,0 -5.40001,-0.36 -7.992,-0.36 -0.864,0 -2.448,-0.072 -2.448,1.008 0,1.152 2.592,2.232 3.888,3.456 1.8,1.656 2.952,3.02401 2.304,8.136 l -2.448,19.152 c -0.504,3.6 -1.728,6.48 -4.176,7.56 -1.656,0.72 -3.96,1.08 -3.96,2.16 0,0.72 1.584,1.152 2.376,1.224 0.504,0 3.24,-0.432 6.624,-0.432 3.45599,0 6.624,0.432 7.128,0.432 0.792,-0.072 2.304,-0.504 2.304,-1.224 0,-1.08 -2.376,-1.44 -3.96,-2.16 -1.872,-0.864 -2.376,-4.392 -2.232,-6.336 l 1.224,-20.088 c 0.072,-1.8 0.72,-2.80799 1.8,-0.072 l 8.856,22.68 c 1.512,3.888 2.088,4.464 2.808,4.464 0.648,0 3.672,-6.192 3.96,-6.84 l 9.72,-22.32 c 0.504,-1.296 1.8,-1.584 1.872,-0.216 l 0.936,22.68 c 0.144,2.664 -0.936,4.968 -3.384,6.048 -1.584,0.72 -3.96,1.08 -3.96,2.16 0,0.72 1.584,1.152 2.376,1.224 0.504,0 4.752,-0.432 8.136,-0.432 3.45599,0 8.208,0.432 8.712,0.432 0.792,-0.072 2.304,-0.504 2.304,-1.224 0,-1.08 -2.376,-1.44 -3.96,-2.16 -2.448,-1.08 -3.24,-3.384 -3.384,-6.048"
         style="fill:none;stroke:#808080;stroke-width:0.625;stroke-miterlimit:4;stroke-dasharray:none"
         id="path3031"
         inkscape:connector-curvature="0" />
      <path
         d="m 207.18521,185.52571 c -2.448,0 -5.40001,0.36 -7.92,0.36 -2.592,0 -5.18401,-0.36 -7.992,-0.36 -1.08,0 -2.52,0.432 -2.52,1.296 0,0.648 0.504,1.008 1.152,1.224 4.10399,1.152 5.904,1.22401 5.904,5.328 l 0,26.28 c 0,2.664 -0.936,4.104 -3.384,5.184 -1.584,0.72 -3.96,1.08 -3.96,2.16 0,0.72 1.584,1.152 2.376,1.224 0.504,0 4.752,-0.432 8.136,-0.432 3.45599,0 8.208,0.432 8.712,0.432 0.792,-0.072 2.304,-0.504 2.304,-1.224 0,-1.08 -2.376,-1.44 -3.96,-2.16 -2.448,-1.08 -3.384,-2.52 -3.384,-5.184 l 0,-26.28 c 0,-4.10399 1.872,-4.176 5.976,-5.328 0.648,-0.216 1.08,-0.576 1.08,-1.224 0,-0.864 -1.44,-1.296 -2.52,-1.296"
         style="fill:none;stroke:#808080;stroke-width:0.625;stroke-miterlimit:4;stroke-dasharray:none"
         id="path3033"
         inkscape:connector-curvature="0" />
      <path
         d="m 228.19796,184.80571 c -7.056,0 -12.816,5.32801 -12.816,12.096 0,3.528 1.656,6.12001 4.248,8.28 l 9.72,8.208 c 1.8,1.512 2.88,3.31201 2.88,5.76 0,3.6 -2.66401,6.912 -6.264,6.912 -4.176,0 -6.984,-2.088 -7.776,-4.68 -0.648,-2.15999 -1.296,-3.384 -2.448,-3.384 -0.72,0 -1.224,0.864 -1.368,1.728 -0.216,0.936 -0.504,3.96 -0.504,4.968 0,1.008 0.648,1.368 3.312,2.592 1.728,0.792 5.04,1.584 7.56,1.584 7.19999,0 14.472,-5.256 14.472,-12.312 0,-3.02399 -1.224,-5.472 -3.456,-7.344 l -10.152,-8.568 c -2.16,-1.8 -3.672,-3.672 -3.672,-6.048 0,-3.16799 2.808,-5.688 5.904,-5.688 2.088,0 4.968,0.864 5.688,2.592 1.08,2.592 2.016,3.312 2.88,3.312 1.08,0 1.44,-1.008 1.44,-1.944 0,-1.368 -0.072,-2.952 -0.288,-4.104 -0.144,-0.792 -0.792,-1.368 -2.16,-2.088 -1.584,-0.792 -4.896,-1.872 -7.2,-1.872"
         style="fill:none;stroke:#808080;stroke-width:0.625;stroke-miterlimit:4;stroke-dasharray:none"
         id="path3035"
         inkscape:connector-curvature="0" />
      <path
         d="m 257.58858,184.80571 c -7.05599,0 -12.816,5.32801 -12.816,12.096 0,3.528 1.65601,6.12001 4.248,8.28 l 9.72,8.208 c 1.8,1.512 2.88,3.31201 2.88,5.76 0,3.6 -2.664,6.912 -6.264,6.912 -4.17599,0 -6.984,-2.088 -7.776,-4.68 -0.648,-2.15999 -1.296,-3.384 -2.448,-3.384 -0.72,0 -1.224,0.864 -1.368,1.728 -0.216,0.936 -0.504,3.96 -0.504,4.968 0,1.008 0.64801,1.368 3.312,2.592 1.728,0.792 5.04001,1.584 7.56,1.584 7.2,0 14.472,-5.256 14.472,-12.312 0,-3.02399 -1.224,-5.472 -3.456,-7.344 l -10.152,-8.568 c -2.16,-1.8 -3.672,-3.672 -3.672,-6.048 0,-3.16799 2.80801,-5.688 5.904,-5.688 2.088,0 4.968,0.864 5.688,2.592 1.08,2.592 2.016,3.312 2.88,3.312 1.08,0 1.44,-1.008 1.44,-1.944 0,-1.368 -0.072,-2.952 -0.288,-4.104 -0.144,-0.792 -0.792,-1.368 -2.16,-2.088 -1.584,-0.792 -4.896,-1.872 -7.2,-1.872"
         style="fill:none;stroke:#808080;stroke-width:0.625;stroke-miterlimit:4;stroke-dasharray:none"
         id="path3037"
         inkscape:connector-curvature="0" />
      <path
         d="m 287.41121,208.49371 5.04,-14.328 c 0.288,-0.72 0.576,-0.936 0.792,-0.216 l 4.392,13.464 c 0.72,2.304 0.648,2.592 -0.792,2.592 l -8.784,0 c -1.296,0 -1.08,-0.36 -0.648,-1.512 m 20.52,19.296 c 2.376,0 4.968,0.432 6.624,0.432 1.368,0 2.088,-0.36 2.088,-1.152 0,-0.72 -0.648,-1.44 -2.88,-2.232 -3.528,-1.296 -4.32,-3.24 -6.408,-9.072 l -9.504,-26.856 c -1.008,-2.80799 -1.44,-5.184 -2.664,-5.184 -0.432,0 -1.728,2.016 -3.096,2.16 -0.792,0.072 -0.792,1.00801 -2.016,4.104 l -11.016,30.456 c -1.08,2.952 -1.008,3.312 -3.384,4.392 -1.584,0.72 -3.96,1.08 -3.96,2.16 0,0.792 1.008,1.224 2.376,1.224 1.08,0 2.736,-0.432 4.536,-0.432 1.368,0 4.536,0.432 5.904,0.432 1.8,0 2.52,-0.432 2.52,-1.224 0,-0.72 -0.792,-1.512 -2.664,-2.016 -2.088,-0.576 -2.016,-1.728 -1.584,-3.024 l 2.736,-7.848 c 0.288,-0.72 0.792,-0.792 1.152,-0.792 l 12.024,0 c 0.576,0 0.936,0.216 1.152,0.864 l 2.088,6.84 c 0.36,1.224 0.50399,2.592 -2.088,3.816 -1.584,0.72 -3.888,1.08 -3.888,2.16 0,0.792 1.368,1.224 2.304,1.224 2.16,0 4.896,-0.432 9.648,-0.432"
         style="fill:none;stroke:#808080;stroke-width:0.625;stroke-miterlimit:4;stroke-dasharray:none"
         id="path3039"
         inkscape:connector-curvature="0" />
      <path
         d="m 347.49296,190.56571 c 0,-1.584 3.168,-2.304 6.264,-2.304 10.22399,0 18.36,7.77601 18.36,18.288 0,9.14399 -4.53601,18.792 -13.104,18.792 -9.64799,0 -11.52,-1.296 -11.52,-6.12 l 0,-28.656 m 8.64,-5.544 c -4.464,0 -9.79201,0.576 -14.256,0.576 -2.16,0 -3.528,-0.072 -5.76,-0.072 -1.512,0 -2.52,0.432 -2.52,1.296 0,0.648 0.504,1.008 1.152,1.224 4.10399,1.224 5.904,1.22401 5.904,5.328 l 0,26.28 c 0,2.664 -1.008,4.104 -3.384,5.184 -1.584,0.72 -3.96,1.08 -3.96,2.16 0,0.792 1.584,1.152 2.376,1.224 0.504,0 4.752,-0.432 8.064,-0.432 3.31199,0 7.128,0.792 13.968,0.792 15.47998,0 22.464,-11.01601 22.464,-23.472 0,-12.23998 -11.95201,-20.088 -24.048,-20.088"
         style="fill:none;stroke:#808080;stroke-width:0.625;stroke-miterlimit:4;stroke-dasharray:none"
         id="path3041"
         inkscape:connector-curvature="0" />
      <path
         d="m 399.10233,202.44571 0,-12.096 c 0,-0.936 0.288,-1.512 2.232,-1.512 l 8.568,0 c 3.456,0 5.256,1.152 5.832,2.376 0.648,1.44 1.728,2.736 2.592,2.736 0.864,0 1.152,-1.008 1.152,-1.872 0,-0.792 -0.36,-4.752 -0.648,-5.904 -0.144,-0.648 -0.72,-1.008 -1.872,-1.008 -1.296,0 -5.544,0.36 -8.568,0.36 l -20.664,0 c -1.512,0 -2.52,0.432 -2.52,1.296 0,0.648 0.504,1.008 1.152,1.224 4.104,1.152 5.904,1.22401 5.904,5.328 l 0,26.28 c 0,2.664 -0.936,4.104 -3.384,5.184 -1.584,0.72 -3.96,1.08 -3.96,2.16 0,0.72 1.584,1.152 2.376,1.224 0.504,0 4.75201,-0.36 8.136,-0.36 7.63199,0 20.66401,0.36 23.328,0.36 1.224,0 1.368,-0.288 1.944,-1.368 0.576,-0.936 2.736,-6.264 2.736,-8.28 0,-1.08 -0.288,-1.8 -1.008,-1.8 -0.648,0 -1.584,0.576 -1.944,1.368 -2.088,4.392 -3.024,6.696 -8.568,6.696 l -10.08,0 c -2.088,0 -2.736,-0.936 -2.736,-2.808 l 0,-12.096 c 0,-1.368 0.36,-1.728 1.728,-1.728 l 7.56,0 c 1.512,0 2.016,0.72 2.52,1.512 0.432,0.72 1.368,2.736 2.304,2.736 0.72,0 0.936,-1.152 0.936,-1.872 0,-0.792 -0.072,-3.024 -0.072,-4.104 0,-1.08 0.288,-3.6 0.288,-4.176 0,-0.864 -0.144,-1.44 -0.792,-1.44 -0.792,0 -1.44,1.08 -2.232,1.8 -1.296,1.224 -2.088,2.016 -4.392,2.016 l -6.192,0 c -1.008,0 -1.656,-0.504 -1.656,-2.232"
         style="fill:none;stroke:#808080;stroke-width:0.625;stroke-miterlimit:4;stroke-dasharray:none"
         id="path3043"
         inkscape:connector-curvature="0" />
      <path
         d="m 444.56021,185.52571 c -2.448,0 -5.40001,0.36 -7.92,0.36 -2.592,0 -5.18401,-0.36 -7.992,-0.36 -1.08,0 -2.52,0.432 -2.52,1.296 0,0.648 0.504,1.008 1.152,1.224 4.10399,1.152 5.904,1.22401 5.904,5.328 l 0,26.28 c 0,2.664 -0.936,4.104 -3.384,5.184 -1.584,0.72 -3.96,1.08 -3.96,2.16 0,0.72 1.584,1.152 2.376,1.224 0.504,0 4.752,-0.432 8.136,-0.432 3.45599,0 8.208,0.432 8.712,0.432 0.792,-0.072 2.304,-0.504 2.304,-1.224 0,-1.08 -2.376,-1.44 -3.96,-2.16 -2.448,-1.08 -3.384,-2.52 -3.384,-5.184 l 0,-26.28 c 0,-4.10399 1.872,-4.176 5.976,-5.328 0.648,-0.216 1.08,-0.576 1.08,-1.224 0,-0.864 -1.44,-1.296 -2.52,-1.296"
         style="fill:none;stroke:#808080;stroke-width:0.625;stroke-miterlimit:4;stroke-dasharray:none"
         id="path3045"
         inkscape:connector-curvature="0" />
      <path
         d="m 467.59121,228.22171 c 0.504,0 4.752,-0.432 8.136,-0.432 3.45599,0 8.208,0.432 8.712,0.432 0.792,-0.072 2.304,-0.504 2.304,-1.224 0,-1.08 -2.376,-1.44 -3.96,-2.16 -2.448,-1.08 -3.384,-2.52 -3.384,-5.256 l -0.072,-9.864 c -0.072,-1.296 0.36,-1.728 1.728,-1.728 l 6.984,0 c 1.512,0 2.016,0.72 2.52,1.512 0.432,0.72 1.368,2.736 2.304,2.736 0.72,0 0.936,-1.152 0.936,-1.872 0,-0.792 -0.072,-3.024 -0.072,-4.104 0,-1.08 0.288,-3.6 0.288,-4.176 0,-0.864 -0.144,-1.44 -0.792,-1.44 -0.792,0 -1.44,1.08 -2.232,1.8 -1.296,1.224 -2.088,2.016 -4.392,2.016 l -5.616,0 c -1.008,0 -1.656,-0.504 -1.656,-2.232 l 0.072,-11.88 c 0,-0.936 0.288,-1.512 2.232,-1.512 l 7.992,0 c 3.45599,0 5.256,1.152 5.832,2.376 0.648,1.44 1.728,2.736 2.592,2.736 0.864,0 1.152,-1.008 1.152,-1.872 0,-0.792 -0.36,-4.752 -0.648,-5.904 -0.144,-0.648 -0.72,-1.008 -1.872,-1.008 -1.296,0 -5.54401,0.36 -8.568,0.36 l -20.088,0 c -1.512,0 -2.52,0.432 -2.52,1.296 0,0.648 0.504,1.008 1.152,1.224 4.10399,1.152 5.904,1.22401 5.904,5.328 l 0,26.28 c 0,2.664 -0.936,4.104 -3.384,5.184 -1.584,0.72 -3.96,1.08 -3.96,2.16 0,0.72 1.584,1.152 2.376,1.224"
         style="fill:none;stroke:#808080;stroke-width:0.625;stroke-miterlimit:4;stroke-dasharray:none"
         id="path3047"
         inkscape:connector-curvature="0" />
      <path
         d="m 519.09146,185.52571 c -2.448,0 -5.40001,0.36 -7.92,0.36 -2.592,0 -5.18401,-0.36 -7.992,-0.36 -1.08,0 -2.52,0.432 -2.52,1.296 0,0.648 0.504,1.008 1.152,1.224 4.10399,1.152 5.904,1.22401 5.904,5.328 l 0,26.28 c 0,2.664 -0.936,4.104 -3.384,5.184 -1.584,0.72 -3.96,1.08 -3.96,2.16 0,0.72 1.584,1.152 2.376,1.224 0.504,0 4.752,-0.432 8.136,-0.432 3.45599,0 8.208,0.432 8.712,0.432 0.792,-0.072 2.304,-0.504 2.304,-1.224 0,-1.08 -2.376,-1.44 -3.96,-2.16 -2.448,-1.08 -3.384,-2.52 -3.384,-5.184 l 0,-26.28 c 0,-4.10399 1.872,-4.176 5.976,-5.328 0.648,-0.216 1.08,-0.576 1.08,-1.224 0,-0.864 -1.44,-1.296 -2.52,-1.296"
         style="fill:none;stroke:#808080;stroke-width:0.625;stroke-miterlimit:4;stroke-dasharray:none"
         id="path3049"
         inkscape:connector-curvature="0" />
      <path
         d="m 539.02421,221.95771 0,-28.584 c 0,-4.10399 1.944,-4.176 6.048,-5.328 0.648,-0.216 1.08,-0.576 1.08,-1.224 0,-0.864 -1.44,-1.296 -2.52,-1.296 -2.448,0 -5.40001,0.36 -7.92,0.36 -2.592,0 -5.18401,-0.36 -7.992,-0.36 -1.584,0 -2.592,0.432 -2.592,1.296 0,0.648 0.504,1.008 1.152,1.224 4.10399,1.152 5.904,1.22401 5.904,5.328 l 0,26.28 c 0,2.664 -0.936,4.104 -3.384,5.184 -1.584,0.72 -3.96,1.08 -3.96,2.16 0,0.72 1.584,1.152 2.376,1.224 0.504,0 4.752,-0.36 8.136,-0.36 7.63199,0 21.24,0.36 23.904,0.36 1.224,0 1.44,-0.288 2.016,-1.368 0.576,-0.936 2.376,-6.768 2.376,-8.712 0,-2.01599 -0.576,-3.384 -1.296,-3.384 -0.648,0 -1.584,0.576 -1.944,1.368 -2.088,4.392 -3.02401,8.712 -8.568,8.712 l -9.648,0 c -2.232,0 -3.168,-0.792 -3.168,-2.88"
         style="fill:none;stroke:#808080;stroke-width:0.625;stroke-miterlimit:4;stroke-dasharray:none"
         id="path3051"
         inkscape:connector-curvature="0" />
      <path
         d="m 586.16958,185.52571 c -2.448,0 -5.4,0.36 -7.92,0.36 -2.59199,0 -5.184,-0.36 -7.992,-0.36 -1.08,0 -2.52,0.432 -2.52,1.296 0,0.648 0.504,1.008 1.152,1.224 4.104,1.152 5.904,1.22401 5.904,5.328 l 0,26.28 c 0,2.664 -0.936,4.104 -3.384,5.184 -1.584,0.72 -3.96,1.08 -3.96,2.16 0,0.72 1.584,1.152 2.376,1.224 0.504,0 4.75201,-0.432 8.136,-0.432 3.456,0 8.208,0.432 8.712,0.432 0.792,-0.072 2.304,-0.504 2.304,-1.224 0,-1.08 -2.376,-1.44 -3.96,-2.16 -2.448,-1.08 -3.384,-2.52 -3.384,-5.184 l 0,-26.28 c 0,-4.10399 1.87201,-4.176 5.976,-5.328 0.648,-0.216 1.08,-0.576 1.08,-1.224 0,-0.864 -1.44,-1.296 -2.52,-1.296"
         style="fill:none;stroke:#808080;stroke-width:0.625;stroke-miterlimit:4;stroke-dasharray:none"
         id="path3053"
         inkscape:connector-curvature="0" />
      <path
         d="m 610.63833,185.52571 c -2.448,0 -5.4,0.36 -7.92,0.36 -2.59199,0 -5.184,-0.36 -7.992,-0.36 -1.08,0 -2.52,0.432 -2.52,1.296 0,0.648 0.504,1.008 1.152,1.224 4.104,1.152 5.904,1.22401 5.904,5.328 l 0,26.28 c 0,2.664 -0.936,4.104 -3.384,5.184 -1.584,0.72 -3.96,1.08 -3.96,2.16 0,0.72 1.584,1.152 2.376,1.224 0.504,0 4.75201,-0.432 8.136,-0.432 3.456,0 8.208,0.432 8.712,0.432 0.792,-0.072 2.304,-0.504 2.304,-1.224 0,-1.08 -2.376,-1.44 -3.96,-2.16 -2.448,-1.08 -3.384,-2.52 -3.384,-5.184 l 0,-26.28 c 0,-4.10399 1.87201,-4.176 5.976,-5.328 0.648,-0.216 1.08,-0.576 1.08,-1.224 0,-0.864 -1.44,-1.296 -2.52,-1.296"
         style="fill:none;stroke:#808080;stroke-width:0.625;stroke-miterlimit:4;stroke-dasharray:none"
         id="path3055"
         inkscape:connector-curvature="0" />
    </g>
  </g>
</svg>
